<?xml version="1.0" encoding="UTF-8" standalone="no"?>
<!DOCTYPE svg PUBLIC "-//W3C//DTD SVG 1.1//EN" "http://www.w3.org/Graphics/SVG/1.1/DTD/svg11.dtd">
<svg width="100%" height="100%" viewBox="0 0 222 79" version="1.1" xmlns="http://www.w3.org/2000/svg" xmlns:xlink="http://www.w3.org/1999/xlink" xml:space="preserve" xmlns:serif="http://www.serif.com/" style="fill-rule:evenodd;clip-rule:evenodd;stroke-linejoin:round;stroke-miterlimit:2;">
    <g id="Tavola-da-disegno1" serif:id="Tavola da disegno1" transform="matrix(0.523252,0,0,1,-0.276172,0.374921)">
        <rect x="0.528" y="-0.375" width="423.72" height="78.543" style="fill:none;"/>
        <g id="Raggruppa_9" transform="matrix(1.24608,0,0,0.652012,-363.879,7.04038)">
            <g id="Raggruppa_1" transform="matrix(1,0,0,1,85.23,-230.114)">
                <g id="Raggruppa_1-2" transform="matrix(1,0,0,1,309.829,266.651)">
                    <g id="Tracciato_1" transform="matrix(1,0,0,1,-309.829,-273.004)">
                        <path d="M323.814,280.6C320.839,279.055 317.289,279.055 314.314,280.6C312.961,281.344 311.828,282.432 311.031,283.755C309.424,286.586 309.424,290.065 311.031,292.896C311.828,294.218 312.961,295.307 314.314,296.05C317.289,297.595 320.839,297.595 323.814,296.05C325.165,295.309 326.293,294.22 327.081,292.896C328.667,290.059 328.667,286.592 327.081,283.755C326.293,282.431 325.165,281.341 323.814,280.6ZM322.542,290.61C322.219,291.253 321.73,291.797 321.125,292.187C320.51,292.577 319.793,292.779 319.065,292.766C318.332,292.777 317.611,292.576 316.99,292.187C316.378,291.801 315.883,291.256 315.558,290.61C315.205,289.902 315.039,289.115 315.075,288.325C315.04,287.53 315.206,286.739 315.558,286.025C315.88,285.373 316.375,284.821 316.99,284.432C317.611,284.043 318.332,283.842 319.065,283.853C319.793,283.84 320.51,284.042 321.125,284.432C321.733,284.825 322.223,285.376 322.542,286.025C322.893,286.739 323.059,287.53 323.025,288.325C323.061,289.115 322.894,289.901 322.542,290.609L322.542,290.61Z" style="fill:rgb(245,134,0);fill-rule:nonzero;"/>
                    </g>
                    <g id="Tracciato_2" transform="matrix(1,0,0,1,-334.529,-268.098)">
                        <path d="M374.6,274.5C374.591,274.164 374.651,273.829 374.778,273.518C374.887,273.257 375.087,273.043 375.341,272.918C375.643,272.78 375.974,272.713 376.306,272.724C376.547,272.729 376.786,272.773 377.014,272.853C377.29,272.948 377.558,273.066 377.814,273.207L379.295,269.441C378.746,269.004 378.125,268.666 377.46,268.441C376.734,268.199 375.973,268.079 375.208,268.087C374.141,268.063 373.087,268.336 372.166,268.875C371.308,269.39 370.607,270.13 370.139,271.015C369.648,271.947 369.4,272.988 369.415,274.041L369.415,275.361L366.94,275.361L366.94,279.609L369.419,279.609L369.419,291.98L374.6,291.98L374.6,279.621L378.108,279.621L378.108,275.373L374.6,275.373L374.6,274.5Z" style="fill:rgb(245,134,0);fill-rule:nonzero;"/>
                    </g>
                    <g id="Tracciato_3" transform="matrix(1,0,0,1,-324.889,-268.098)">
                        <path d="M352.489,273.521C352.598,273.26 352.798,273.046 353.052,272.921C353.354,272.783 353.685,272.716 354.017,272.727C354.258,272.732 354.497,272.776 354.725,272.856C355.001,272.951 355.269,273.069 355.525,273.21L357.006,269.444C356.457,269.007 355.836,268.669 355.171,268.444C354.445,268.202 353.684,268.082 352.919,268.09C351.852,268.066 350.798,268.339 349.877,268.878C349.019,269.393 348.318,270.133 347.85,271.018C347.359,271.95 347.111,272.991 347.126,274.044L347.126,275.364L344.647,275.364L344.647,279.612L347.126,279.612L347.126,291.98L352.307,291.98L352.307,279.621L355.815,279.621L355.815,275.373L352.307,275.373L352.307,274.5C352.299,274.165 352.361,273.831 352.489,273.521Z" style="fill:rgb(245,134,0);fill-rule:nonzero;"/>
                    </g>
                    <g id="Tracciato_4" transform="matrix(1,0,0,1,-343.851,-273.004)">
                        <path d="M403.073,281.887C402.342,281.115 401.46,280.502 400.482,280.087C399.438,279.648 398.314,279.429 397.182,279.443C395.986,279.43 394.799,279.654 393.69,280.102C392.652,280.525 391.715,281.161 390.938,281.969C390.156,282.79 389.544,283.758 389.138,284.817C388.699,285.966 388.481,287.187 388.494,288.417C388.465,290.001 388.866,291.564 389.652,292.939C390.426,294.26 391.552,295.341 392.903,296.061C394.421,296.853 396.115,297.246 397.827,297.204C398.613,297.202 399.396,297.111 400.161,296.93C400.956,296.744 401.728,296.468 402.461,296.109C403.229,295.733 403.943,295.257 404.586,294.693L402.172,291.281C401.612,291.734 400.988,292.103 400.321,292.375C399.697,292.599 399.036,292.708 398.373,292.697C397.434,292.721 396.502,292.523 395.654,292.118C394.925,291.763 394.32,291.196 393.916,290.493C393.732,290.164 393.591,289.812 393.498,289.447L405.229,289.447L405.261,288.063C405.315,286.892 405.14,285.723 404.746,284.619C404.381,283.604 403.811,282.674 403.073,281.887ZM393.773,285.701C394.054,285.09 394.521,284.582 395.108,284.253C395.766,283.904 396.504,283.731 397.249,283.753C397.806,283.743 398.357,283.864 398.858,284.107C399.316,284.331 399.71,284.669 400.001,285.088C400.293,285.512 400.465,286.007 400.501,286.52L400.501,286.552L393.488,286.552C393.552,286.259 393.647,285.973 393.771,285.7L393.773,285.701Z" style="fill:rgb(245,134,0);fill-rule:nonzero;"/>
                    </g>
                    <g id="Tracciato_5" transform="matrix(1,0,0,1,-359.133,-273.004)">
                        <path d="M433.868,279.441C432.98,279.438 432.105,279.659 431.326,280.085C430.312,280.64 429.452,281.44 428.826,282.412L428.72,279.796L423.828,279.796L423.828,296.886L429.01,296.886L429.01,288.325C429.003,287.853 429.084,287.383 429.251,286.941C429.403,286.549 429.626,286.189 429.911,285.879C430.197,285.574 430.549,285.337 430.94,285.187C431.361,285.024 431.809,284.942 432.26,284.946C432.677,284.945 433.093,284.993 433.499,285.091C433.833,285.163 434.154,285.288 434.449,285.462L435.865,279.762C435.564,279.671 435.257,279.596 434.948,279.537C434.592,279.471 434.23,279.439 433.868,279.441Z" style="fill:rgb(245,134,0);fill-rule:nonzero;"/>
                    </g>
                    <g id="Tracciato_6" transform="matrix(1,0,0,1,-369.558,-269.987)">
                        <path d="M456.1,272.465L450.95,272.465L450.95,276.778L447.93,276.778L447.93,281.284L450.955,281.284L450.955,293.869L456.105,293.869L456.105,281.283L459.42,281.283L459.42,276.777L456.1,276.777L456.1,272.465Z" style="fill:rgb(245,134,0);fill-rule:nonzero;"/>
                    </g>
                    <g id="Tracciato_7" transform="matrix(1,0,0,1,-379.492,-273.004)">
                        <path d="M483.677,281.9C483.369,281.486 483.012,281.111 482.615,280.781C482.082,280.352 481.477,280.02 480.829,279.799C480.109,279.556 479.352,279.436 478.592,279.445C477.188,279.423 475.809,279.821 474.633,280.587C473.457,281.369 472.512,282.453 471.897,283.725C470.568,286.631 470.568,289.976 471.897,292.882C472.5,294.151 473.428,295.239 474.585,296.036C476.37,297.204 478.594,297.494 480.619,296.825C481.286,296.599 481.916,296.274 482.486,295.86C482.89,295.558 483.258,295.21 483.58,294.822L483.58,296.889L488.795,296.889L488.795,279.8L483.677,279.8L483.677,281.9ZM481.907,292.288C481.287,292.664 480.572,292.854 479.847,292.835C479.137,292.853 478.438,292.663 477.835,292.288C477.251,291.905 476.788,291.363 476.5,290.727C475.855,289.193 475.855,287.461 476.5,285.927C476.79,285.288 477.253,284.742 477.835,284.35C478.434,283.965 479.135,283.769 479.847,283.786C480.574,283.768 481.291,283.964 481.907,284.35C482.497,284.738 482.966,285.285 483.259,285.927C483.903,287.461 483.903,289.193 483.259,290.727C482.967,291.365 482.498,291.905 481.907,292.283L481.907,292.288Z" style="fill:rgb(245,134,0);fill-rule:nonzero;"/>
                    </g>
                    <g id="Tracciato_8" transform="matrix(1,0,0,1,-395.288,-273.004)">
                        <path d="M520.973,288.743C520.479,288.225 519.889,287.809 519.235,287.519C518.394,287.136 517.522,286.823 516.628,286.586C515.812,286.35 515.168,286.15 514.697,285.986C514.34,285.875 513.995,285.73 513.667,285.551C513.463,285.434 513.291,285.268 513.167,285.069C513.052,284.886 512.991,284.674 512.99,284.458C512.975,284.063 513.172,283.688 513.505,283.476C513.695,283.351 513.908,283.263 514.132,283.219C514.413,283.162 514.699,283.136 514.985,283.139C515.468,283.148 515.946,283.235 516.402,283.396C517.444,283.749 518.398,284.319 519.202,285.07L521.902,282.045C521.307,281.498 520.641,281.032 519.923,280.661C519.161,280.267 518.356,279.965 517.523,279.761C516.64,279.544 515.733,279.436 514.823,279.439C513.957,279.437 513.094,279.562 512.264,279.809C511.477,280.037 510.736,280.402 510.076,280.887C509.463,281.336 508.948,281.906 508.563,282.561C508.184,283.216 507.989,283.961 507.999,284.718C507.989,285.353 508.109,285.983 508.353,286.569C508.594,287.125 508.933,287.633 509.353,288.069C509.884,288.582 510.499,289.001 511.171,289.308C512.013,289.698 512.892,290.005 513.794,290.225C514.502,290.418 515.082,290.59 515.533,290.74C515.865,290.842 516.187,290.971 516.498,291.126C516.862,291.325 517.086,291.711 517.077,292.126C517.081,292.321 517.037,292.515 516.948,292.689C516.858,292.855 516.731,292.998 516.578,293.107C516.396,293.234 516.193,293.327 515.978,293.381C515.717,293.449 515.448,293.483 515.178,293.481C514.362,293.469 513.556,293.311 512.796,293.014C511.947,292.696 511.178,292.196 510.543,291.549L507.421,294.249C508.246,295.203 509.29,295.943 510.463,296.405C511.87,296.964 513.374,297.236 514.888,297.205C516.149,297.227 517.4,296.98 518.557,296.48C519.562,296.05 520.435,295.36 521.084,294.48C521.695,293.633 522.017,292.611 522.001,291.567C522.005,291.036 521.918,290.508 521.743,290.006C521.577,289.536 521.314,289.106 520.973,288.743Z" style="fill:rgb(245,134,0);fill-rule:nonzero;"/>
                    </g>
                    <g id="Tracciato_9" transform="matrix(1,0,0,1,-408.583,-273.274)">
                        <path d="M549.234,290.268C549.239,290.671 549.163,291.07 549.009,291.442C548.862,291.791 548.649,292.108 548.381,292.376C548.106,292.649 547.777,292.863 547.416,293.004C547.021,293.158 546.601,293.234 546.177,293.229C545.634,293.245 545.098,293.107 544.632,292.829C544.2,292.558 543.862,292.158 543.666,291.687C543.438,291.125 543.329,290.523 543.344,289.917L543.344,280.068L538.162,280.068L538.162,290.625C538.129,291.896 538.376,293.16 538.886,294.325C539.321,295.301 540.039,296.125 540.946,296.691C541.926,297.262 543.047,297.546 544.181,297.512C545.101,297.517 546.012,297.325 546.852,296.949C547.663,296.591 548.396,296.077 549.008,295.436C549.152,295.284 549.287,295.125 549.414,294.959L549.555,297.159L554.415,297.159L554.415,280.069L549.233,280.069L549.234,290.268Z" style="fill:rgb(245,134,0);fill-rule:nonzero;"/>
                    </g>
                    <g id="Tracciato_10" transform="matrix(1,0,0,1,-424.478,-273.028)">
                        <path d="M589.043,280.64C587.89,279.874 586.532,279.476 585.148,279.498C584.184,279.494 583.228,279.674 582.332,280.029C581.511,280.34 580.762,280.817 580.132,281.429C580.048,281.513 579.979,281.601 579.904,281.687L579.81,279.82L574.918,279.82L574.918,303.992L580.1,303.992L580.1,295.173C580.73,295.815 581.486,296.319 582.321,296.653C583.198,297.018 584.139,297.204 585.089,297.201C586.488,297.225 587.863,296.826 589.032,296.058C590.198,295.274 591.131,294.19 591.732,292.92C593.04,290.009 593.04,286.674 591.732,283.763C591.128,282.502 590.2,281.424 589.043,280.64ZM587.208,290.73C586.912,291.366 586.444,291.907 585.856,292.291C585.25,292.674 584.545,292.87 583.828,292.854C583.101,292.873 582.385,292.677 581.769,292.291C581.182,291.907 580.714,291.366 580.417,290.73C580.078,289.983 579.914,289.168 579.935,288.348C579.918,287.528 580.083,286.715 580.417,285.966C580.704,285.32 581.174,284.772 581.769,284.389C582.389,284.013 583.104,283.823 583.828,283.842C584.55,283.822 585.262,284.018 585.872,284.405C586.454,284.797 586.917,285.343 587.207,285.982C587.851,287.498 587.851,289.214 587.207,290.73L587.208,290.73Z" style="fill:rgb(245,134,0);fill-rule:nonzero;"/>
                    </g>
                    <g id="Tracciato_11" transform="matrix(1,0,0,1,-439.735,-273.004)">
                        <path d="M624.77,281.887C624.039,281.115 623.157,280.502 622.179,280.087C621.135,279.648 620.011,279.429 618.879,279.443C617.683,279.43 616.496,279.654 615.387,280.102C614.349,280.525 613.412,281.161 612.635,281.969C611.853,282.79 611.241,283.758 610.835,284.817C610.396,285.966 610.178,287.187 610.191,288.417C610.162,290.001 610.563,291.564 611.349,292.939C612.123,294.26 613.249,295.341 614.6,296.061C616.118,296.853 617.813,297.246 619.525,297.204C620.311,297.202 621.093,297.11 621.858,296.93C622.653,296.744 623.425,296.468 624.158,296.109C624.925,295.733 625.639,295.257 626.282,294.693L623.868,291.281C623.308,291.734 622.684,292.103 622.017,292.375C621.393,292.599 620.733,292.708 620.07,292.697C619.131,292.722 618.199,292.523 617.351,292.118C616.622,291.763 616.016,291.197 615.612,290.493C615.428,290.164 615.288,289.812 615.194,289.447L626.925,289.447L626.957,288.063C627.011,286.892 626.836,285.723 626.442,284.619C626.077,283.604 625.508,282.674 624.77,281.887ZM615.47,285.701C615.751,285.09 616.219,284.583 616.806,284.253C617.464,283.904 618.201,283.731 618.946,283.753C619.503,283.743 620.054,283.864 620.555,284.107C621.013,284.331 621.407,284.669 621.698,285.088C621.99,285.512 622.162,286.007 622.198,286.52L622.198,286.552L615.185,286.552C615.25,286.259 615.344,285.973 615.468,285.7L615.47,285.701Z" style="fill:rgb(245,134,0);fill-rule:nonzero;"/>
                    </g>
                    <g id="Tracciato_12" transform="matrix(1,0,0,1,-455.017,-273.004)">
                        <path d="M656.644,279.537C656.289,279.47 655.928,279.436 655.566,279.437C654.678,279.434 653.803,279.655 653.023,280.081C652.009,280.636 651.149,281.436 650.523,282.408L650.417,279.792L645.524,279.792L645.524,296.882L650.706,296.882L650.706,288.321C650.699,287.849 650.78,287.379 650.947,286.937C651.099,286.545 651.322,286.185 651.607,285.875C651.894,285.57 652.246,285.333 652.637,285.183C653.057,285.02 653.505,284.938 653.956,284.942C654.373,284.941 654.789,284.989 655.195,285.087C655.529,285.159 655.85,285.284 656.145,285.458L657.561,279.758C657.259,279.668 656.953,279.594 656.644,279.537Z" style="fill:rgb(245,134,0);fill-rule:nonzero;"/>
                    </g>
                </g>
                <g id="Raggruppa_2" transform="matrix(1,0,0,1,510.378,264.752)">
                    <g id="Tracciato_13" transform="matrix(1,0,0,1,-663.219,-280.279)">
                        <path d="M665.987,300.652C665.237,300.623 664.51,300.914 663.987,301.452C662.979,302.665 662.959,304.434 663.939,305.669C664.488,306.188 665.229,306.456 665.983,306.409C666.741,306.441 667.479,306.15 668.011,305.609C668.533,305.054 668.811,304.312 668.783,303.55C668.833,302.767 668.567,301.995 668.044,301.409C667.493,300.883 666.748,300.609 665.987,300.652Z" style="fill:rgb(35,45,54);fill-rule:nonzero;"/>
                    </g>
                    <g id="Rettangolo_1" transform="matrix(1,0,0,1,9.494,8.69)">
                        <rect x="0" y="0" width="5.15" height="17.09" style="fill:rgb(35,45,54);"/>
                    </g>
                    <g id="Tracciato_14" transform="matrix(1,0,0,1,-670.062,-264.752)">
                        <path d="M682.132,264.752C681.316,264.709 680.512,264.973 679.88,265.492C679.33,265.967 679.022,266.666 679.043,267.392C678.998,268.142 679.301,268.873 679.864,269.371C680.513,269.866 681.318,270.111 682.133,270.063C682.945,270.108 683.745,269.843 684.37,269.322C684.916,268.832 685.217,268.124 685.191,267.391C685.234,266.655 684.939,265.938 684.391,265.444C683.747,264.947 682.944,264.701 682.132,264.752Z" style="fill:rgb(35,45,54);fill-rule:nonzero;"/>
                    </g>
                    <g id="Tracciato_15" transform="matrix(1,0,0,1,-676.832,-268.088)">
                        <path d="M706.185,276.778L702.87,276.778L702.87,272.465L697.72,272.465L697.72,276.778L694.695,276.778L694.695,281.284L697.72,281.284L697.72,293.869L702.87,293.869L702.87,281.283L706.185,281.283L706.185,276.778Z" style="fill:rgb(35,45,54);fill-rule:nonzero;"/>
                    </g>
                </g>
            </g>
            <g id="Raggruppa_3" transform="matrix(1,0,0,1,200.94,-202.045)">
                <g id="Ellisse_1" transform="matrix(1,0,0,1,119.282,221.766)">
                    <circle cx="29.27" cy="29.27" r="29.27" style="fill:rgb(208,211,214);"/>
                </g>
                <g id="Tracciato_16" transform="matrix(1,0,0,1,0,-20.327)">
                    <path d="M150.414,258.569C146.89,257.674 143.215,257.538 139.634,258.169C137.835,258.484 136.068,258.959 134.354,259.591C132.814,260.154 131.366,260.899 129.797,261.375C128.576,261.743 127.338,262.049 126.086,262.291C124.541,262.574 122.596,262.816 120.486,263.023C113.817,263.678 105.513,263.975 103.049,264.052L112.863,264.333L120.185,264.111L124.841,263.97L132.178,263.008L124.841,265.063L119.882,265.427L114.682,265.809L99.647,267.5C99.271,268.063 98.944,268.658 98.67,269.277L103.305,268.777L108.533,271.543C109.411,273.762 110.766,275.762 112.502,277.4L116.568,276.166L119.744,277.747C119.744,277.747 127.774,275.09 130.873,273.721C134.261,272.221 139.645,268.908 139.819,268.274L150.666,258.622C150.584,258.612 150.5,258.591 150.414,258.569Z" style="fill:white;fill-rule:nonzero;"/>
                </g>
                <g id="Tracciato_17" transform="matrix(1,0,0,1,-23.706,-50.631)">
                    <path d="M169,323.693C167.741,322.602 166.4,321.615 165.066,320.62C163.92,319.765 162.724,318.975 161.602,318.091C160.378,317.173 159.243,316.143 158.21,315.014C157.607,314.288 157.28,313.371 157.288,312.427C157.274,312.105 157.356,311.797 157.319,311.482C155.799,312.484 154.381,313.633 153.085,314.911C151.189,316.686 149.484,318.655 148,320.787C147.877,321.024 147.604,321.144 147.347,321.074C145.759,320.833 144.153,320.728 142.547,320.76C142.265,320.754 141.988,320.829 141.747,320.974C141.393,321.189 141.032,321.39 140.674,321.597C140.671,321.772 140.726,321.943 140.83,322.084C141.255,322.896 141.808,323.634 142.468,324.27C142.959,324.804 143.489,325.302 144.054,325.758C145.545,325.311 147.098,325.109 148.654,325.158C149.221,325.074 149.778,324.936 150.319,324.747C150.908,324.476 151.476,324.162 152.019,323.808C154.792,322.298 157.482,320.64 160.078,318.842C160.219,318.742 160.321,318.691 160.427,318.883C161.319,320.045 162.287,321.145 163.327,322.177C163.458,322.278 163.609,322.349 163.771,322.384C164.873,322.649 165.957,322.983 167.017,323.384C168.022,323.73 168.999,324.154 169.938,324.653C169.68,324.284 169.363,323.959 169,323.693Z" style="fill:rgb(235,99,0);fill-rule:nonzero;"/>
                </g>
                <g id="Tracciato_18" transform="matrix(1,0,0,1,-30.874,-64.65)">
                    <path d="M159.667,338.234C161.731,337.726 163.793,337.21 165.867,336.734C166.722,336.516 167.595,336.38 168.476,336.327C168.399,336.692 168.434,337.073 168.576,337.418C168.829,338.341 169.205,339.226 169.692,340.05C170.006,340.507 170.253,341.006 170.426,341.533C170.08,341.51 162.539,340.943 159.103,340.872C158.917,340.854 158.731,340.899 158.574,341.001C157.235,341.945 155.717,342.573 154.313,343.401C153.835,343.683 153.546,343.535 153.425,342.986C153.389,342.843 153.375,342.696 153.384,342.549C153.388,341.26 154.122,340.079 155.275,339.503C155.467,339.411 155.645,339.291 155.83,339.184C156.406,338.808 156.682,338.167 157.144,337.69C157.414,337.345 157.901,337.248 158.282,337.464C158.553,337.574 159.33,338.316 159.667,338.234Z" style="fill:rgb(35,45,54);fill-rule:nonzero;"/>
                </g>
                <g id="Tracciato_19" transform="matrix(1,0,0,1,-35.981,-34.306)">
                    <path d="M170.518,284.328C169.86,284.238 169.191,284.305 168.533,284.191C167.453,284.127 166.48,283.507 165.966,282.554C165.386,283.407 165.018,284.386 164.895,285.41C164.668,286.522 164.501,287.645 164.395,288.775C164.354,289.335 164.311,289.894 164.273,290.454C164.25,290.614 164.174,290.761 164.058,290.873C163.558,291.473 163.077,292.073 162.568,292.658C162.428,292.799 162.384,293.01 162.455,293.196C162.684,293.997 163.095,294.734 163.655,295.351C164.066,295.619 164.519,295.816 164.995,295.936C165.567,296.166 166.071,296.202 166.349,295.506C166.427,295.306 166.613,295.364 166.765,295.346C167.397,295.272 167.442,295.217 167.365,294.612C167.322,294.362 167.292,294.11 167.275,293.857C167.284,293.116 166.99,292.403 166.462,291.883C166.33,291.752 166.262,291.642 166.403,291.441C167.603,289.722 168.811,288.005 169.861,286.186C170.131,285.586 170.351,284.964 170.518,284.328Z" style="fill:rgb(35,45,54);fill-rule:nonzero;"/>
                </g>
                <g id="Raggruppa_3-2" transform="matrix(1,0,0,1,155.992,229.582)">
                    <g id="Tracciato_20" transform="matrix(1,0,0,1,-230.25,-246.402)">
                        <path d="M248.16,255.593C247.298,254.556 246.542,253.436 245.902,252.249C245.787,252.025 245.678,251.799 245.575,251.57C244.745,252.102 243.942,252.676 243.17,253.289C242.505,253.801 241.719,254.134 240.889,254.257C239.609,254.446 238.341,254.716 237.068,254.946C237.068,254.946 232.279,255.981 232.098,255.974C231.917,255.967 231.544,257.726 231.544,257.726C231.105,258.433 230.681,259.148 230.25,259.86C230.393,259.841 230.531,259.924 230.58,260.06C230.835,260.601 231.003,261.179 231.08,261.772C231.256,262.802 230.472,263.809 230.25,264.848C230.234,264.923 231.119,265.04 231.125,265.119C232.023,264.463 233.053,264.01 234.144,263.793C236.561,263.024 238.836,261.867 240.882,260.368C243.113,258.819 245.482,257.478 247.957,256.36C248.195,256.27 248.416,256.14 248.611,255.977C248.541,256.03 248.2,255.643 248.16,255.593Z" style="fill:rgb(235,99,0);fill-rule:nonzero;"/>
                    </g>
                    <g id="Tracciato_21" transform="matrix(1,0,0,1,-250.103,-239.706)">
                        <path d="M277.713,240.866C277.723,240.745 277.659,240.628 277.55,240.573C276.632,240.13 275.649,239.839 274.638,239.71C274.488,239.684 274.394,239.798 274.289,239.878C273.594,240.443 272.957,241.077 272.389,241.769C272.151,242.038 271.844,242.238 271.502,242.349C269.495,243.057 267.545,243.909 265.602,244.771C265.543,244.801 265.486,244.834 265.432,244.871C265.535,245.1 265.644,245.326 265.759,245.55C266.399,246.737 267.155,247.857 268.017,248.894C268.057,248.945 268.398,249.331 268.468,249.276C270.159,247.901 271.745,246.401 273.212,244.789C273.241,244.761 273.269,244.732 273.295,244.701C273.567,244.21 274.168,243.995 274.69,244.201C275.632,244.403 276.616,244.223 277.426,243.701C277.578,243.612 277.666,243.443 277.653,243.268C277.723,242.469 277.743,241.667 277.713,240.866Z" style="fill:rgb(35,45,54);fill-rule:nonzero;"/>
                    </g>
                </g>
                <g id="Tracciato_22" transform="matrix(1,0,0,1,-82.35,-16.594)">
                    <path d="M244.591,251.169C244.586,251.195 244.591,251.208 244.622,251.208C244.622,251.189 244.609,251.173 244.591,251.169Z" style="fill:rgb(208,211,214);fill-rule:nonzero;"/>
                </g>
                <g id="Tracciato_23" transform="matrix(1,0,0,1,-71.079,-32.477)">
                    <path d="M224.638,279.328L224.62,279.314L224.62,279.338L224.638,279.328Z" style="fill:rgb(245,134,0);fill-rule:nonzero;"/>
                </g>
                <g id="Tracciato_26" transform="matrix(1,0,0,1,-74.651,-15.754)">
                    <path d="M231.023,249.7C231.023,249.669 230.972,249.7 230.947,249.7C230.972,249.703 230.998,249.703 231.023,249.7Z" style="fill:none;fill-rule:nonzero;"/>
                </g>
                <g id="Tracciato_27" transform="matrix(1,0,0,1,-68.742,-7.156)">
                    <path d="M224.283,242.376C224.249,241.66 224.567,241.215 225.038,241.1L225.112,241.083C225.373,241.048 225.639,241.09 225.878,241.202L227.316,238.971C227.442,238.758 227.516,238.487 227.859,238.41C228.609,238.241 229.359,238.078 230.11,237.91C230.435,237.61 232.01,235.597 230.967,235.657C230.903,235.659 230.839,235.656 230.776,235.647C230.896,235.234 231.249,234.934 231.291,234.447C229.682,234.947 227.998,235.161 226.315,235.081C224.258,234.899 222.75,236.648 221.015,237.498C219.688,239.428 221.183,241.682 221.701,243.664C222.623,243.371 223.494,242.936 224.283,242.376Z" style="fill:rgb(35,45,54);fill-rule:nonzero;"/>
                </g>
                <g id="Raggruppa_5" transform="matrix(1,0,0,1,148.319,230.756)">
                    <g id="Tracciato_28" transform="matrix(1,0,0,1,-213.838,-252.354)">
                        <path d="M214.766,260.037C214.797,260.059 214.829,260.082 214.859,260.106C214.829,260.082 214.8,260.059 214.766,260.037Z" style="fill:none;fill-rule:nonzero;"/>
                    </g>
                    <g id="Tracciato_29" transform="matrix(1,0,0,1,-214.071,-252.537)">
                        <path d="M215.18,260.361C215.217,260.394 215.253,260.429 215.289,260.461C215.253,260.428 215.217,260.393 215.18,260.361Z" style="fill:none;fill-rule:nonzero;"/>
                    </g>
                    <g id="Tracciato_30" transform="matrix(1,0,0,1,-213.601,-252.206)">
                        <path d="M214.347,259.774L214.424,259.818L214.347,259.774Z" style="fill:none;fill-rule:nonzero;"/>
                    </g>
                    <g id="Tracciato_31" transform="matrix(1,0,0,1,-213.401,-252.104)">
                        <path d="M213.992,259.593L214.017,259.604L213.992,259.593Z" style="fill:none;fill-rule:nonzero;"/>
                    </g>
                    <g id="Tracciato_32" transform="matrix(1,0,0,1,-214.298,-252.756)">
                        <path d="M217.7,264.1C217.15,262.99 216.496,261.934 215.747,260.947C215.693,260.876 215.636,260.811 215.579,260.747C215.636,260.809 215.692,260.874 215.747,260.947C216.496,261.934 217.15,262.99 217.7,264.1Z" style="fill:none;fill-rule:nonzero;"/>
                    </g>
                    <g id="Raggruppa_4">
                        <g id="Tracciato_33" transform="matrix(1,0,0,1,-214.515,-253.012)">
                            <path d="M215.966,261.2C216.344,261.694 216.696,262.207 217.022,262.737C216.696,262.207 216.344,261.694 215.966,261.2Z" style="fill:none;fill-rule:nonzero;"/>
                        </g>
                        <g id="Tracciato_34" transform="matrix(1,0,0,1,-212.636,-251.876)">
                            <path d="M213.227,259.366C213.039,259.282 212.84,259.223 212.637,259.19L213.253,259.376L213.227,259.366Z" style="fill:none;fill-rule:nonzero;"/>
                        </g>
                        <g id="Tracciato_35" transform="matrix(1,0,0,1,-212.635,-242.402)">
                            <path d="M227.576,247.334C226.468,246.354 226.066,245.645 226.503,244.226C226.32,243.582 226.046,242.967 225.687,242.402C224.937,242.568 224.187,242.731 223.436,242.902C223.095,242.979 223.02,243.251 222.893,243.463L221.454,245.694C221.215,245.582 220.949,245.54 220.688,245.575L220.614,245.592C220.143,245.707 219.825,246.152 219.859,246.868C219.07,247.428 218.198,247.863 217.275,248.156L215.941,249.612C215.761,249.955 215.342,250.105 214.985,249.953L212.637,249.719C212.84,249.752 213.039,249.811 213.227,249.895L213.252,249.906C213.296,249.926 213.339,249.95 213.381,249.974L213.458,250.018C213.494,250.04 213.529,250.064 213.563,250.089C213.597,250.114 213.626,250.134 213.656,250.158C213.686,250.182 213.714,250.205 213.743,250.23C213.772,250.255 213.816,250.298 213.852,250.33C213.888,250.362 213.896,250.372 213.918,250.395C213.975,250.457 214.031,250.522 214.086,250.595C214.464,251.089 214.816,251.602 215.142,252.132C215.466,252.658 215.763,253.198 216.042,253.748C216.589,254.857 217.069,255.997 217.48,257.163L218.255,259.588C218.46,259.518 220.239,254.977 220.446,254.758C220.54,254.603 220.497,254.378 220.591,254.223C220.926,253.665 221.261,253.107 221.605,252.554C221.931,252.03 221.941,252.031 222.519,252.205C223.755,252.597 225.05,252.77 226.345,252.716C226.745,252.694 227.257,251.916 227.045,251.593C226.745,251.133 226.642,250.572 226.759,250.036C226.774,249.937 226.798,249.841 226.833,249.747C226.737,249.203 227.032,248.661 227.541,248.447C227.941,248.256 227.907,247.645 227.576,247.334Z" style="fill:white;fill-rule:nonzero;"/>
                        </g>
                    </g>
                </g>
                <g id="Tracciato_36" transform="matrix(1,0,0,1,-64.316,-21.118)">
                    <path d="M220.051,264.708L219.09,266.075C218.418,264.242 216.06,259.775 215.256,259.464C214.399,259.254 213.518,259.161 212.636,259.187C216.005,263.124 218.309,269.27 218.309,269.27C219.76,267.965 220.05,264.713 220.051,264.708Z" style="fill:rgb(35,45,54);fill-rule:nonzero;"/>
                </g>
                <g id="Tracciato_37" transform="matrix(1,0,0,1,-40.566,-21.087)">
                    <path d="M197.388,266.036C197.253,265.234 197.069,264.441 196.838,263.661C196.641,263.99 196.461,264.328 196.3,264.676C196.139,265.024 196.009,267.933 194.558,269.239C194.558,269.239 192.258,263.093 188.885,259.156C186.668,259.062 184.452,259.365 182.342,260.05C179.26,261.15 176.432,262.861 174.027,265.081C172.74,266.208 171.63,267.523 170.736,268.981C170.665,269.093 170.612,269.217 170.55,269.335C171.064,270.288 172.037,270.908 173.117,270.972C173.774,271.085 174.444,271.019 175.102,271.109C175.178,270.809 175.267,270.516 175.326,270.215C175.344,270.024 175.51,269.879 175.702,269.886C176.619,269.786 177.518,269.581 178.425,269.422C179.067,269.242 179.722,269.115 180.385,269.042L179.785,270.962L179.176,273.216C178.951,274.122 178.656,275.009 178.295,275.87C177.992,276.753 177.388,277.5 176.588,277.981C176.207,278.244 175.871,278.568 175.594,278.939L175.325,279.277C174.802,279.914 174.444,280.669 174.28,281.477C174.243,281.632 174.212,281.788 174.18,281.943C174.217,282.258 174.134,282.566 174.149,282.888C174.141,283.832 174.468,284.749 175.071,285.475C176.104,286.604 177.239,287.634 178.463,288.552C179.585,289.437 180.781,290.226 181.927,291.081C183.261,292.081 184.603,293.063 185.861,294.154C186.226,294.42 186.545,294.744 186.804,295.114C185.865,294.615 184.888,294.19 183.883,293.844C182.823,293.443 181.739,293.109 180.637,292.844C180.475,292.809 180.324,292.738 180.193,292.637L178.165,292.761C178.03,293.222 178.066,293.716 178.265,294.153C178.779,295.472 179.398,296.747 180.116,297.967L180.945,298.033C182.945,298.191 184.952,298.333 186.945,298.58C187.257,298.592 187.562,298.49 187.804,298.293C188.38,297.896 188.829,297.34 189.096,296.693C189.175,296.478 189.188,296.245 189.133,296.023C188.862,294.698 188.434,293.411 187.857,292.188C186.931,289.873 185.701,287.691 184.2,285.7C183.844,285.249 182.972,284.3 182.972,284.3C183.988,283.741 184.967,283.117 185.903,282.432C188.446,280.657 190.839,278.676 193.056,276.507C194.046,275.571 194.929,274.529 195.691,273.399L195.791,273.253C196.642,272.114 197.204,270.786 197.431,269.382C197.499,268.267 197.484,267.149 197.388,266.036Z" style="fill:rgb(245,134,0);fill-rule:nonzero;"/>
                </g>
                <g id="Tracciato_38" transform="matrix(1,0,0,1,-46.998,-31.571)">
                    <path d="M193.723,283.169C193.556,282.996 193.473,282.759 193.494,282.52C193.554,281.244 193.975,278.251 194,278.008C194.033,277.674 193.862,277.685 193.651,277.735C193.391,277.796 193.137,277.877 192.882,277.956C191.305,278.444 187.364,279.339 186.998,279.401C186.907,279.416 186.848,279.441 186.819,279.527L186.219,281.447L185.61,283.701C185.385,284.607 185.09,285.494 184.729,286.355C184.426,287.238 183.822,287.985 183.022,288.466C182.607,288.755 182.245,289.112 181.95,289.522C182.745,289.495 183.539,289.598 184.301,289.827C185.219,290.138 186.033,290.698 186.653,291.443C187.153,291.957 187.574,292.524 188.017,293.079L188.058,293.131L189.208,294.544L189.408,294.786C189.399,294.644 188.889,292.654 188.832,292.467C188.637,291.814 188.419,291.167 188.204,290.521C188.114,290.283 188.138,290.017 188.268,289.799C188.645,289.114 191.232,284.199 191.429,283.819C191.493,283.656 191.67,283.565 191.839,283.608C192.666,283.708 193.499,283.755 194.387,283.827C194.211,283.509 193.918,283.386 193.723,283.169Z" style="fill:rgb(235,99,0);fill-rule:nonzero;"/>
                </g>
                <g transform="matrix(1,0,0,1,-71.078,-32.477)">
                    <g id="Raggruppa_6">
                        <path id="Tracciato_39" d="M224.62,279.314L224.62,279.338L224.641,279.328L224.62,279.314Z" style="fill:white;fill-rule:nonzero;"/>
                    </g>
                </g>
                <g id="Tracciato_40" transform="matrix(1,0,0,1,-6.347,-63.734)">
                    <path d="M126.7,338.862C126.135,338.406 125.605,337.908 125.114,337.374C124.387,336.576 123.782,335.675 123.32,334.7C121.083,335.998 118.916,337.411 116.826,338.934C116.381,339.255 115.926,339.567 115.49,339.895C115.433,339.959 115.352,339.995 115.266,339.995C115.18,339.995 115.099,339.959 115.042,339.895C114.767,339.68 114.456,339.517 114.123,339.414C113.733,339.224 113.258,339.363 113.032,339.733C112.814,340.037 112.619,340.357 112.451,340.691C112.237,341.125 111.905,341.49 111.493,341.745C110.374,342.445 109.759,343.735 109.919,345.045C109.922,345.179 109.948,345.311 109.995,345.436C110.223,346.003 110.46,346.218 111.02,345.764C112.245,344.764 113.633,343.989 114.807,342.923C114.948,342.821 115.104,342.745 115.271,342.696C118.82,341.29 126.55,339.042 126.7,338.862Z" style="fill:rgb(35,45,54);fill-rule:nonzero;"/>
                </g>
            </g>
        </g>
    </g>
</svg>
